<?xml version="1.0" encoding="utf-8"?>
<!-- Generator: Adobe Illustrator 25.0.1, SVG Export Plug-In . SVG Version: 6.00 Build 0)  -->
<svg version="1.1" id="Слой_1" xmlns="http://www.w3.org/2000/svg" xmlns:xlink="http://www.w3.org/1999/xlink" x="0px" y="0px"
	 viewBox="0 0 841.9 595.3" style="enable-background:new 0 0 841.9 595.3;" xml:space="preserve">
<style type="text/css">
	.st0{fill:#3164AF;}
</style>
<g>
	<path class="st0" d="M144.8,357.5c-4.3-4.2-10.6-6.3-19-6.3H90.2v7.3c5.6,0,10,0.1,10,0.1v0h25.5c5.5,0,9.8,1.2,12.9,3.7
		c3.1,2.5,4.6,6.2,4.6,11.2c0,5-1.5,8.7-4.6,11.1c-3.1,2.4-7.4,3.7-12.9,3.7l-35.5,0.1v40.3h8.1v-33h27.5c8.4,0,14.7-2.1,19-6.2
		c4.3-4.2,6.4-9.5,6.4-15.9C151.2,367.1,149,361.7,144.8,357.5z"/>
	<path class="st0" d="M580.8,357.5c-4.3-4.2-10.6-6.3-19-6.3h-35.6v7.2c5.6,0.1,14,0.2,14,0.2v0h21.4c5.5,0,9.8,1.2,12.9,3.7
		c3.1,2.5,4.6,6.2,4.6,11.2c0,5-1.5,8.7-4.6,11.1c-3.1,2.4-7.4,3.7-12.9,3.7h-27.4l-8.1,0v40.4h8.1v-33h27.5c8.4,0,14.7-2.1,19-6.2
		c4.3-4.2,6.4-9.5,6.4-15.9C587.2,367.1,585.1,361.7,580.8,357.5z"/>
	<g>
		<path class="st0" d="M222.5,358.4v-7.2h-63.3v7.1C167.5,358.3,213.6,358.4,222.5,358.4z"/>
		<polygon class="st0" points="186.8,367.1 186.8,428.7 194.8,428.7 194.8,367.2 		"/>
	</g>
	<g>
		<path class="st0" d="M629.1,357.1c8.6,0,15.7,2.7,21.5,8.2c3.6,3.4,6.1,7.5,7.8,12.1c2.9,0,5.7,0,8.4,0c-1.8-6-4.9-11.3-9.4-16
			c-7.6-7.7-17-11.6-28.2-11.6c-7.4,0-13.9,1.8-19.4,5.3c-5.6,3.5-9.9,8.3-13.1,14.4h8.9C611,361.2,618.9,357.1,629.1,357.1z"/>
		<path class="st0" d="M660.5,386.4H616v7.4h44.4c-0.8,8.6-4.1,15.6-10,21c-5.9,5.4-13,8.2-21.4,8.2c-10.2,0-18.1-4.1-23.7-12.4
			h-8.9c3.2,6.1,7.6,10.9,13.1,14.4c5.6,3.5,12,5.3,19.4,5.3c11.2,0,20.6-3.9,28.2-11.6c7.6-7.7,11.4-17.3,11.4-28.6
			c0-1.3-0.3-2.4-0.4-3.6C668.4,386.3,660.5,386.3,660.5,386.4z"/>
	</g>
	<polygon class="st0" points="407.2,351.2 372.8,420.7 337.5,351.2 329.2,351.2 334.3,363 334.3,362.8 367.8,428.7 378.1,428.7 
		410.4,362.8 410.4,428.7 418.4,428.7 418.4,351.2 	"/>
	<g>
		<polygon class="st0" points="447.1,351.2 439.2,351.2 439.2,428.7 446.5,428.7 		"/>
		<polygon class="st0" points="495.5,351.2 459.9,400.9 459.9,413.8 497.4,361.5 497.4,428.7 505.5,428.7 505.5,351.2 		"/>
	</g>
	<g>
		<path class="st0" d="M256.8,389.7L237,351.2h-8.6l24.3,47.6C254,395.8,255.5,392.6,256.8,389.7z"/>
		<path class="st0" d="M285.6,351.2l-29.4,61c-1.6,3.4-3.3,5.8-5.3,7.1c-2,1.3-4.5,2-7.6,2h-4.7v7.3h6.6c3.5,0,6.4-0.6,8.6-1.8
			c2.2-1.2,4.1-2.9,5.6-5.2c1.5-2.3,3.4-5.9,5.8-10.9l28.9-59.6H285.6z"/>
	</g>
	<g>
		<path class="st0" d="M721.2,402.8h-18.6c-0.9,2.4-1.8,4.9-2.8,7.3h24.7L721.2,402.8z"/>
		<path class="st0" d="M717.2,351.2h-9.9l-34.1,77.5h8.5l8.2-18.6h0.1l8.7-20l0,0l13.4-30.5l16,36.3l0,0c0,0,0.4,0.9,0.9,2.1
			l2.1,4.7h0c1,2.3,2.1,4.9,3.2,7.3h0.1l8.2,18.6h8.5L717.2,351.2z"/>
	</g>
	<g>
		<path class="st0" d="M619,445.6c-41.2,46.3-101,75.7-167.6,75.7c-49,0-94.3-16-131.3-42.8l-0.3,8.7
			c37.4,25.9,82.7,41.2,131.6,41.2c71.1,0,134.7-32.3,177.3-82.8H619z"/>
		<path class="st0" d="M451.3,72.3c123.8,0,224.5,100.7,224.5,224.5c0,17-2.1,33.5-5.7,49.5h7.4c3.5-16,5.4-32.5,5.4-49.5
			c0-127.7-103.9-231.6-231.6-231.6S219.7,169.1,219.7,296.8c0,12.9,1.3,25.4,3.4,37.7h7.2c-2.1-12.3-3.4-24.8-3.4-37.7
			C226.9,173,327.6,72.3,451.3,72.3z"/>
	</g>
</g>
</svg>
